<?xml version="1.0" encoding="UTF-8"?>
<svg id="Layer_1" data-name="Layer 1" xmlns="http://www.w3.org/2000/svg" viewBox="0 0 500 500">
  <defs>
    <style>
      .cls-1 {
        fill: #fbbf24;
      }
    </style>
  </defs>
  <path class="cls-1" d="M132.61,274.02l55.57,30.97c3,1.67,6.47,2.06,9.76,1.13,3.29-.94,6.02-3.09,7.7-6.09,1.66-3,2.07-6.46,1.13-9.75-.94-3.3-3.1-6.03-6.1-7.7l-55.57-30.97c-1.97-1.09-4.11-1.61-6.22-1.61-4.51,0-8.89,2.37-11.23,6.58-1.66,2.99-2.07,6.45-1.13,9.75.94,3.28,3.1,6.02,6.1,7.69Z"/>
  <path class="cls-1" d="M425.21,152.42c-2.82-4.81-6.89-8.78-11.78-11.51l-139.22-77.33c-7.39-4.11-15.76-6.27-24.21-6.27s-16.83,2.16-24.21,6.27l-139.22,77.33c-4.88,2.7-8.96,6.69-11.79,11.51-2.83,4.82-4.33,10.32-4.33,15.88v152.58c0,8.88,2.4,17.63,6.9,25.29,4.5,7.66,10.99,13.99,18.75,18.3l129.68,72.06c14.82,8.21,33.61,8.21,48.43,0l129.68-72.06c7.76-4.31,14.26-10.64,18.76-18.32,4.51-7.64,6.89-16.39,6.9-25.29v-152.55c0-5.58-1.5-11.09-4.34-15.9ZM238.24,85.99c7.17-3.94,16.39-3.96,23.52.01l45.19,25.11-140.31,77.95-56.96-31.65,128.56-71.43ZM237.18,413.51l-128.62-71.47c-3.77-2.09-6.92-5.16-9.11-8.88-2.19-3.7-3.35-7.94-3.36-12.26v-141.68l141.08,78.37v155.92ZM193.04,203.73l140.32-77.95,56.96,31.65-140.32,77.95-56.96-31.65ZM403.9,320.87c0,4.31-1.16,8.55-3.34,12.29-2.2,3.72-5.35,6.79-9.11,8.88l-128.62,71.47v-155.92l141.07-78.37v141.65Z"/>
</svg>