<svg width="178" height="32" viewBox="0 0 178 32" fill="none" xmlns="http://www.w3.org/2000/svg">
<g clip-path="url(#clip0_521_1778)">
<path d="M167.124 8.85377C164.792 8.86454 162.517 9.5774 160.602 10.898V0H155.961V30.186H160.602V28.5024C162.517 29.8228 164.792 30.5357 167.124 30.5466C170.026 30.5466 172.808 29.4038 174.86 27.3696C176.912 25.3354 178.065 22.5764 178.065 19.6996C178.065 16.8228 176.912 14.0639 174.86 12.0297C172.808 9.99548 170.026 8.85268 167.124 8.85267M167.124 25.9443C166.28 25.9714 165.439 25.8298 164.65 25.5281C163.862 25.2264 163.143 24.7707 162.536 24.1881C161.93 23.6054 161.447 22.9078 161.117 22.1365C160.788 21.3653 160.618 20.5362 160.618 19.6986C160.618 18.861 160.788 18.0319 161.117 17.2606C161.447 16.4894 161.93 15.7917 162.536 15.2091C163.143 14.6264 163.862 14.1707 164.65 13.869C165.439 13.5673 166.28 13.4258 167.124 13.4528C168.795 13.4528 170.397 14.1108 171.579 15.2821C172.76 16.4534 173.424 18.0421 173.424 19.6986C173.424 21.3551 172.76 22.9437 171.579 24.115C170.397 25.2863 168.795 25.9443 167.124 25.9443Z" fill="black"/>
<path d="M103.893 9.43484C101.831 9.8822 99.9641 10.9615 98.5555 12.5197V9.19043H93.9136V30.186H98.5555V20.2351C98.5449 18.9963 98.8905 17.7803 99.552 16.7293C100.213 15.6783 101.163 14.836 102.29 14.3011C103.108 13.8635 104.007 13.5952 104.933 13.5125L103.893 9.43484Z" fill="black"/>
<path d="M127.969 9.16553L124.792 21.7515L120.569 9.16553H117.856L113.752 21.7657L110.447 9.16553H105.839L111.207 30.186H115.944L119.257 19.7442L122.671 30.186H127.499L132.742 9.16553H127.969Z" fill="black"/>
<path d="M59.8994 8.85267C58.4041 8.85066 56.9319 9.21801 55.6157 9.92152V0H50.9749V30.186H55.6157V17.537C55.6216 16.9886 55.7376 16.4469 55.9571 15.9434C56.1765 15.44 56.4949 14.985 56.8937 14.6049C57.2926 14.2249 57.7638 13.9275 58.2798 13.73C58.7959 13.5326 59.3465 13.4391 59.8994 13.455C60.4438 13.4331 60.9867 13.5241 61.4936 13.7221C62.0005 13.9201 62.4601 14.2208 62.8431 14.605C63.2261 14.9892 63.524 15.4485 63.7177 15.9533C63.9115 16.4582 63.9968 16.9976 63.9683 17.537V30.1871H68.6092V17.537C68.6381 16.3929 68.433 15.2549 68.0061 14.1916C67.5793 13.1283 66.9396 12.1617 66.1256 11.3502C65.3117 10.5388 64.3403 9.8992 63.2702 9.47014C62.2001 9.04107 61.0535 8.8314 59.8994 8.85377" fill="black"/>
<path d="M40.212 17.0601C36.6908 16.517 36.0641 15.5665 36.0641 14.917C36.0641 13.3887 38.0712 12.5773 39.7814 12.5773C40.7213 12.5885 41.6454 12.8184 42.4793 13.2486C43.3132 13.6788 44.0335 14.2971 44.5822 15.0539L48.4518 12.3524C47.3853 11.1156 46.0529 10.1312 44.5526 9.47167C43.0522 8.81211 41.4219 8.49407 39.7814 8.54089H39.7715C34.9313 8.54089 31.4342 11.0837 31.2666 14.7182C31.1023 18.2669 33.8521 20.5034 39.4407 21.3669C42.4535 21.8318 43.8449 22.5618 44.0245 23.6067C44.1998 24.63 43.1481 26.2039 39.8438 26.2039C38.8621 26.2328 37.8859 26.0471 36.9847 25.66C36.0834 25.273 35.2791 24.694 34.6289 23.9641L30.5632 26.3907C32.5134 29.3409 36.6283 30.3924 39.8362 30.3924H39.8493C41.1488 30.4672 42.4505 30.2856 43.6787 29.8581C44.907 29.4305 46.0374 28.7655 47.0045 27.9017C47.616 27.2794 48.0832 26.5325 48.3737 25.7128C48.6641 24.8932 48.7708 24.0206 48.6862 23.1559C48.3006 18.0877 42.3801 17.3936 40.2109 17.0601" fill="black"/>
<path d="M75.2636 17.3719C75.7279 16.2156 76.5315 15.224 77.5704 14.5255C78.6093 13.8269 79.8357 13.4534 81.091 13.4534C82.3463 13.4534 83.5727 13.8269 84.6116 14.5255C85.6505 15.224 86.4541 16.2156 86.9184 17.3719H75.2636ZM70.178 19.6726C70.178 25.6392 74.7224 30.4924 81.5084 30.4924C83.3598 30.5284 85.1917 30.1122 86.8425 29.2804C88.4932 28.4486 89.9122 27.2268 90.9742 25.7228L87.4212 23.3494C86.7486 24.2959 85.853 25.0653 84.8122 25.5904C83.7714 26.1155 82.6169 26.3806 81.4492 26.3626C78.0135 26.3626 75.6909 24.3118 75.2625 21.9731H91.7542C91.9199 21.2173 92.0033 20.446 92.0029 19.6726C92.0029 16.8028 90.8531 14.0506 88.8064 12.0214C86.7597 9.99218 83.9838 8.85217 81.0894 8.85217C78.1949 8.85217 75.419 9.99218 73.3723 12.0214C71.3256 14.0506 70.1758 16.8028 70.1758 19.6726" fill="black"/>
<path d="M137.425 17.3719C137.89 16.2156 138.693 15.224 139.732 14.5255C140.771 13.8269 141.998 13.4534 143.253 13.4534C144.508 13.4534 145.735 13.8269 146.773 14.5255C147.812 15.224 148.616 16.2156 149.08 17.3719H137.425ZM132.34 19.6726C132.34 25.6392 136.884 30.4924 143.67 30.4924C145.522 30.5284 147.354 30.1122 149.004 29.2804C150.655 28.4486 152.074 27.2268 153.136 25.7228L149.586 23.3516C148.914 24.2982 148.018 25.0676 146.977 25.5927C145.937 26.1179 144.782 26.3829 143.614 26.3647C140.18 26.3647 137.856 24.314 137.429 21.9753H153.92C154.086 21.2195 154.17 20.4482 154.169 19.6747C154.169 16.805 153.019 14.0528 150.973 12.0236C148.926 9.99434 146.15 8.85437 143.256 8.85437C140.361 8.85437 137.585 9.99434 135.539 12.0236C133.492 14.0528 132.342 16.805 132.342 19.6747" fill="black"/>
<path d="M14.1494 4.03967C14.1494 4.03967 10.4836 6.22514 8.32202 7.84144C10.2837 9.44324 12.3949 10.8559 14.627 12.0603C16.1141 12.8113 17.7472 13.2352 19.4147 13.3029C21.0624 13.2384 22.6445 12.6453 23.923 11.6128C22.4805 9.90053 20.8157 8.38514 18.9721 7.10607C18.9721 7.10607 15.5429 4.82501 14.1516 4.04402" fill="#0061AA"/>
<path d="M28.2582 18.0301C28.2582 18.0301 26.067 14.3945 24.4412 12.2482C22.818 14.1851 21.3847 16.271 20.1608 18.4777C19.3972 19.9467 18.9643 21.5625 18.8921 23.2135C18.9514 24.8452 19.5448 26.4134 20.5826 27.6812C22.3161 26.2587 23.8523 24.6151 25.1511 22.7932C25.1511 22.7932 27.4606 19.4042 28.2582 18.0301Z" fill="#0061AA"/>
<path d="M14.111 32C14.111 32 17.7779 29.8156 19.9395 28.1982C17.9785 26.5972 15.868 25.1853 13.6366 23.9815C12.1491 23.2297 10.5151 22.8058 8.84679 22.7389C7.19955 22.8032 5.61789 23.3959 4.3396 24.428C5.78184 26.1401 7.4462 27.6555 9.28939 28.9347C9.28939 28.9347 12.7185 31.2158 14.1099 31.9978" fill="#0061AA"/>
<path d="M0 18.0019C0 18.0019 2.19115 21.6407 3.80931 23.7871C5.43559 21.8535 6.8715 19.77 8.09739 17.5652C8.86348 16.0975 9.29932 14.4824 9.37483 12.8315C9.31647 11.1997 8.72471 9.63096 7.68874 8.36169C5.95379 9.78159 4.41612 11.423 3.11582 13.2431C3.11582 13.2431 0.799769 16.6289 0 18.0019Z" fill="#0061AA"/>
</g>
<defs>
<clipPath id="clip0_521_1778">
<rect width="178" height="32" fill="white"/>
</clipPath>
</defs>
</svg>
